<svg width="256" height="256" viewBox="0 0 256 256" fill="none" xmlns="http://www.w3.org/2000/svg">
  <defs>
    <radialGradient id="bg" cx="0" cy="0" r="1" gradientUnits="userSpaceOnUse" gradientTransform="translate(128 128) rotate(90) scale(128)">
      <stop offset="0" stop-color="#0E1018"/>
      <stop offset="0.65" stop-color="#080A11"/>
      <stop offset="1" stop-color="#04060B"/>
    </radialGradient>
    <radialGradient id="glow" cx="0" cy="0" r="1" gradientUnits="userSpaceOnUse" gradientTransform="translate(132 126) rotate(90) scale(78)">
      <stop offset="0" stop-color="#FFF8EE" stop-opacity="0.24"/>
      <stop offset="1" stop-color="#FFF8EE" stop-opacity="0"/>
    </radialGradient>
    <linearGradient id="ring" x1="65" y1="40" x2="190" y2="212" gradientUnits="userSpaceOnUse">
      <stop offset="0" stop-color="#FFF4E3"/>
      <stop offset="0.5" stop-color="#FFE3B8"/>
      <stop offset="1" stop-color="#F6C985"/>
    </linearGradient>
    <filter id="softGlow" x="37" y="37" width="182" height="182" filterUnits="userSpaceOnUse" color-interpolation-filters="sRGB">
      <feGaussianBlur stdDeviation="7" result="blur"/>
      <feComposite in="SourceGraphic" in2="blur" operator="over"/>
    </filter>
  </defs>

  <rect width="256" height="256" rx="56" fill="url(#bg)"/>
  <rect width="256" height="256" rx="56" fill="url(#glow)"/>

  <g opacity="0.82">
    <circle cx="42" cy="58" r="2" fill="#FFF7EB"/>
    <circle cx="64" cy="92" r="1.6" fill="#FFF7EB"/>
    <circle cx="191" cy="54" r="1.8" fill="#FFF7EB"/>
    <circle cx="210" cy="86" r="2.2" fill="#FFF7EB"/>
    <circle cx="198" cy="180" r="1.8" fill="#FFF7EB"/>
    <circle cx="53" cy="185" r="1.6" fill="#FFF7EB"/>
    <circle cx="98" cy="39" r="1.2" fill="#FFF7EB"/>
    <circle cx="162" cy="208" r="1.3" fill="#FFF7EB"/>
  </g>

  <g filter="url(#softGlow)">
    <circle cx="128" cy="128" r="66" stroke="url(#ring)" stroke-width="9.5" stroke-linecap="round" stroke-dasharray="278 54"/>
    <circle cx="128" cy="128" r="12" fill="#FFF4E3"/>
  </g>

  <path d="M59 171C90 187 126 194 170 191C196 189 214 183 224 177" stroke="url(#ring)" stroke-opacity="0.54" stroke-width="2.5" stroke-linecap="round"/>
  <path d="M34 84C67 112 89 154 98 204" stroke="url(#ring)" stroke-opacity="0.24" stroke-width="2" stroke-linecap="round"/>
  <path d="M182 74L202 61" stroke="#FFF4E3" stroke-width="3" stroke-linecap="round"/>
  <circle cx="202" cy="61" r="3.4" fill="#FFF4E3"/>
</svg>
